# xmcd
#
# Track frame offsets:
#	150
#	20475
#	44697
#
# Disc length: 867 seconds
#
# Revision: 1
# Processed by: cddbd v1.5.1PL0 Copyright (c) Steve Scherf et al.
# Submitted via: CDex 1.50Beta5
#
DISCID=21036103
DTITLE=電気GROOVE - Jinsei
DYEAR=1900
DGENRE=Unclassifiable
TTITLE0=Jinsei
TTITLE1=Jinsei (Bring Me Honey Mix)
TTITLE2=Jinsei (Original Caraoke)
EXTD=
EXTT0=
EXTT1=
EXTT2=
PLAYORDER=
